<svg xmlns="http://www.w3.org/2000/svg" width="100" height="100" viewBox="" preserveAspectRatio="" class=""><rect x="0" y="0" width="100" height="100" fill="none" class="bk"/><rect x="46.5" y="40" width="7" height="20" rx="5" ry="5" fill="#414141" transform="rotate(0 50 50) translate(0 -30)"><animate attributeName="opacity" from="1" to="0" dur="1" begin="0" repeatCount="indefinite"/></rect><rect x="46.5" y="40" width="7" height="20" rx="5" ry="5" fill="#414141" transform="rotate(30 50 50) translate(0 -30)"><animate attributeName="opacity" from="1" to="0" dur="1" begin="0.1" repeatCount="indefinite"/></rect><rect x="46.5" y="40" width="7" height="20" rx="5" ry="5" fill="#414141" transform="rotate(60 50 50) translate(0 -30)"><animate attributeName="opacity" from="1" to="0" dur="1" begin="0.2" repeatCount="indefinite"/></rect><rect x="46.5" y="40" width="7" height="20" rx="5" ry="5" fill="#414141" transform="rotate(90 50 50) translate(0 -30)"><animate attributeName="opacity" from="1" to="0" dur="1" begin="0.3" repeatCount="indefinite"/></rect><rect x="46.5" y="40" width="7" height="20" rx="5" ry="5" fill="#414141" transform="rotate(120 50 50) translate(0 -30)"><animate attributeName="opacity" from="1" to="0" dur="1" begin="0.3" repeatCount="indefinite"/></rect><rect x="46.5" y="40" width="7" height="20" rx="5" ry="5" fill="#414141" transform="rotate(150 50 50) translate(0 -30)"><animate attributeName="opacity" from="1" to="0" dur="1" begin="0.4" repeatCount="indefinite"/></rect><rect x="46.5" y="40" width="7" height="20" rx="5" ry="5" fill="#414141" transform="rotate(180 50 50) translate(0 -30)"><animate attributeName="opacity" from="1" to="0" dur="1" begin="0.5" repeatCount="indefinite"/></rect><rect x="46.5" y="40" width="7" height="20" rx="5" ry="5" fill="#414141" transform="rotate(210 50 50) translate(0 -30)"><animate attributeName="opacity" from="1" to="0" dur="1" begin="0.6" repeatCount="indefinite"/></rect><rect x="46.5" y="40" width="7" height="20" rx="5" ry="5" fill="#414141" transform="rotate(240 50 50) translate(0 -30)"><animate attributeName="opacity" from="1" to="0" dur="1" begin="0.7" repeatCount="indefinite"/></rect><rect x="46.5" y="40" width="7" height="20" rx="5" ry="5" fill="#414141" transform="rotate(270 50 50) translate(0 -30)"><animate attributeName="opacity" from="1" to="0" dur="1" begin="0.8" repeatCount="indefinite"/></rect><rect x="46.5" y="40" width="7" height="20" rx="5" ry="5" fill="#414141" transform="rotate(300 50 50) translate(0 -30)"><animate attributeName="opacity" from="1" to="0" dur="1" begin="0.8" repeatCount="indefinite"/></rect><rect x="46.5" y="40" width="7" height="20" rx="5" ry="5" fill="#414141" transform="rotate(330 50 50) translate(0 -30)"><animate attributeName="opacity" from="1" to="0" dur="1" begin="0.9" repeatCount="indefinite"/></rect></svg>